<svg xmlns="http://www.w3.org/2000/svg" width="117" height="77" viewBox="0 0 117 77">
  <g id="Group_7745" data-name="Group 7745" transform="translate(-5881.662 -9402.662)">
    <rect id="Rectangle_3104" data-name="Rectangle 3104" width="117" height="77" transform="translate(5881.662 9402.662)" fill="#fff"/>
    <g id="Group_7744" data-name="Group 7744" transform="translate(5898.437 9412.771)">
      <g id="Group_7741" data-name="Group 7741" transform="translate(20.323 0)">
        <g id="Group_7740" data-name="Group 7740">
          <circle id="Ellipse_567" data-name="Ellipse 567" cx="13.001" cy="13.001" r="13.001" transform="translate(9.355)" fill="#2573d5"/>
          <path id="Path_10809" data-name="Path 10809" d="M180.357,324.368a21.324,21.324,0,0,0-26.907,0,26.049,26.049,0,0,0-8.418,12.116,8.775,8.775,0,0,0,1.121,7.946,7.141,7.141,0,0,0,5.8,3.108h29.936a7.142,7.142,0,0,0,5.8-3.108,8.775,8.775,0,0,0,1.121-7.946A26.405,26.405,0,0,0,180.357,324.368Z" transform="translate(-144.548 -290.942)" fill="#2573d5"/>
        </g>
      </g>
      <g id="Group_7742" data-name="Group 7742" transform="translate(0 6.171)" opacity="0.4">
        <circle id="Ellipse_568" data-name="Ellipse 568" cx="9.057" cy="9.057" r="9.057" transform="translate(6.517)" fill="#2573d5"/>
        <path id="Path_10810" data-name="Path 10810" d="M127.215,333.37a26.059,26.059,0,0,1,8.343-12.051,17.337,17.337,0,0,0-2.93-2.971,14.855,14.855,0,0,0-18.744,0,18.143,18.143,0,0,0-5.864,8.44,6.112,6.112,0,0,0,.781,5.535,4.972,4.972,0,0,0,4.042,2.165h14.07A8.969,8.969,0,0,1,127.215,333.37Z" transform="translate(-107.683 -295.062)" fill="#2573d5"/>
      </g>
      <g id="Group_7743" data-name="Group 7743" transform="translate(57.521 6.171)" opacity="0.4">
        <circle id="Ellipse_569" data-name="Ellipse 569" cx="9.057" cy="9.057" r="9.057" transform="translate(3.244)" fill="#2573d5"/>
        <path id="Path_10811" data-name="Path 10811" d="M220.364,333.37a26.059,26.059,0,0,0-8.343-12.051,17.337,17.337,0,0,1,2.93-2.971,14.855,14.855,0,0,1,18.744,0,18.143,18.143,0,0,1,5.864,8.44,6.112,6.112,0,0,1-.781,5.535,4.972,4.972,0,0,1-4.042,2.165h-14.07A8.97,8.97,0,0,0,220.364,333.37Z" transform="translate(-212.021 -295.062)" fill="#2573d5"/>
      </g>
    </g>
  </g>
</svg>
